<?xml version="1.0" encoding="utf-8"?>
<!-- Generator: Adobe Illustrator 26.0.1, SVG Export Plug-In . SVG Version: 6.00 Build 0)  -->
<svg version="1.1" id="Capa_1" xmlns="http://www.w3.org/2000/svg" xmlns:xlink="http://www.w3.org/1999/xlink" x="0px" y="0px"
	 viewBox="0 0 150 150" style="enable-background:new 0 0 150 150;" xml:space="preserve">
<style type="text/css">
	.st0{fill:url(#SVGID_1_);}
	.st1{fill:url(#SVGID_00000020378028225709857430000013371561176421844870_);}
	.st2{fill:url(#SVGID_00000127764610294467641700000003253136395835320493_);}
</style>
<g>
	<g>
		<linearGradient id="SVGID_1_" gradientUnits="userSpaceOnUse" x1="34.716" y1="39.9245" x2="111.716" y2="107.9245">
			<stop  offset="0" style="stop-color:#FFF2A6"/>
			<stop  offset="2.112336e-02" style="stop-color:#EDD682"/>
			<stop  offset="4.863281e-02" style="stop-color:#D9B75B"/>
			<stop  offset="7.576038e-02" style="stop-color:#C99F3B"/>
			<stop  offset="0.102" style="stop-color:#BE8E25"/>
			<stop  offset="0.1271" style="stop-color:#B78418"/>
			<stop  offset="0.1495" style="stop-color:#B58013"/>
			<stop  offset="0.2295" style="stop-color:#C5972C"/>
			<stop  offset="0.3197" style="stop-color:#D3AA42"/>
			<stop  offset="0.4075" style="stop-color:#DBB54F"/>
			<stop  offset="0.4892" style="stop-color:#DEB953"/>
			<stop  offset="0.5803" style="stop-color:#DBB54F"/>
			<stop  offset="0.6752" style="stop-color:#D3AA42"/>
			<stop  offset="0.7715" style="stop-color:#C6982E"/>
			<stop  offset="0.8616" style="stop-color:#B58013"/>
			<stop  offset="0.8837" style="stop-color:#B78317"/>
			<stop  offset="0.9066" style="stop-color:#BD8D24"/>
			<stop  offset="0.93" style="stop-color:#C89D38"/>
			<stop  offset="0.9536" style="stop-color:#D6B456"/>
			<stop  offset="0.9771" style="stop-color:#E9D07B"/>
			<stop  offset="1" style="stop-color:#FFF2A6"/>
		</linearGradient>
		<path class="st0" d="M89.3,108.7H60.7c-10.4,0-18.9-8.5-18.9-18.9V61.2c0-10.4,8.5-18.9,18.9-18.9h28.6c10.4,0,18.9,8.5,18.9,18.9
			v28.6C108.2,100.2,99.7,108.7,89.3,108.7z M60.7,48c-7.3,0-13.2,5.9-13.2,13.2v28.6c0,7.3,5.9,13.2,13.2,13.2h28.6
			c7.3,0,13.2-5.9,13.2-13.2V61.2c0-7.3-5.9-13.2-13.2-13.2H60.7z"/>
	</g>
	<g>
		
			<linearGradient id="SVGID_00000158018330407345706960000004357765490181783187_" gradientUnits="userSpaceOnUse" x1="34.716" y1="39.9245" x2="111.716" y2="107.9245">
			<stop  offset="0" style="stop-color:#FFF2A6"/>
			<stop  offset="2.112336e-02" style="stop-color:#EDD682"/>
			<stop  offset="4.863281e-02" style="stop-color:#D9B75B"/>
			<stop  offset="7.576038e-02" style="stop-color:#C99F3B"/>
			<stop  offset="0.102" style="stop-color:#BE8E25"/>
			<stop  offset="0.1271" style="stop-color:#B78418"/>
			<stop  offset="0.1495" style="stop-color:#B58013"/>
			<stop  offset="0.2295" style="stop-color:#C5972C"/>
			<stop  offset="0.3197" style="stop-color:#D3AA42"/>
			<stop  offset="0.4075" style="stop-color:#DBB54F"/>
			<stop  offset="0.4892" style="stop-color:#DEB953"/>
			<stop  offset="0.5803" style="stop-color:#DBB54F"/>
			<stop  offset="0.6752" style="stop-color:#D3AA42"/>
			<stop  offset="0.7715" style="stop-color:#C6982E"/>
			<stop  offset="0.8616" style="stop-color:#B58013"/>
			<stop  offset="0.8837" style="stop-color:#B78317"/>
			<stop  offset="0.9066" style="stop-color:#BD8D24"/>
			<stop  offset="0.93" style="stop-color:#C89D38"/>
			<stop  offset="0.9536" style="stop-color:#D6B456"/>
			<stop  offset="0.9771" style="stop-color:#E9D07B"/>
			<stop  offset="1" style="stop-color:#FFF2A6"/>
		</linearGradient>
		<path style="fill:url(#SVGID_00000158018330407345706960000004357765490181783187_);" d="M75,92.5c-9.4,0-17-7.6-17-17
			s7.6-17,17-17s17,7.6,17,17S84.4,92.5,75,92.5z M75,64.2c-6.2,0-11.3,5.1-11.3,11.3c0,6.2,5.1,11.3,11.3,11.3s11.3-5.1,11.3-11.3
			C86.3,69.3,81.2,64.2,75,64.2z"/>
	</g>
	<g>
		
			<linearGradient id="SVGID_00000002357388366844494020000014002174812670013625_" gradientUnits="userSpaceOnUse" x1="51.3941" y1="21.0391" x2="128.3941" y2="89.0391">
			<stop  offset="0" style="stop-color:#FFF2A6"/>
			<stop  offset="2.112336e-02" style="stop-color:#EDD682"/>
			<stop  offset="4.863281e-02" style="stop-color:#D9B75B"/>
			<stop  offset="7.576038e-02" style="stop-color:#C99F3B"/>
			<stop  offset="0.102" style="stop-color:#BE8E25"/>
			<stop  offset="0.1271" style="stop-color:#B78418"/>
			<stop  offset="0.1495" style="stop-color:#B58013"/>
			<stop  offset="0.2295" style="stop-color:#C5972C"/>
			<stop  offset="0.3197" style="stop-color:#D3AA42"/>
			<stop  offset="0.4075" style="stop-color:#DBB54F"/>
			<stop  offset="0.4892" style="stop-color:#DEB953"/>
			<stop  offset="0.5803" style="stop-color:#DBB54F"/>
			<stop  offset="0.6752" style="stop-color:#D3AA42"/>
			<stop  offset="0.7715" style="stop-color:#C6982E"/>
			<stop  offset="0.8616" style="stop-color:#B58013"/>
			<stop  offset="0.8837" style="stop-color:#B78317"/>
			<stop  offset="0.9066" style="stop-color:#BD8D24"/>
			<stop  offset="0.93" style="stop-color:#C89D38"/>
			<stop  offset="0.9536" style="stop-color:#D6B456"/>
			<stop  offset="0.9771" style="stop-color:#E9D07B"/>
			<stop  offset="1" style="stop-color:#FFF2A6"/>
		</linearGradient>
		<path style="fill:url(#SVGID_00000002357388366844494020000014002174812670013625_);" d="M96.8,57.5c0,2.3-1.8,4.1-4.1,4.1
			s-4.1-1.8-4.1-4.1s1.8-4.1,4.1-4.1S96.8,55.3,96.8,57.5z"/>
	</g>
</g>
</svg>
