<?xml version="1.0" encoding="utf-8"?>
<!-- Generator: Adobe Illustrator 23.0.0, SVG Export Plug-In . SVG Version: 6.00 Build 0)  -->
<svg version="1.1" id="Capa_1" xmlns="http://www.w3.org/2000/svg" xmlns:xlink="http://www.w3.org/1999/xlink" x="0px" y="0px"
	 viewBox="0 0 150 150" style="enable-background:new 0 0 150 150;" xml:space="preserve">
<style type="text/css">
	.st0{fill:url(#SVGID_1_);}
</style>
<linearGradient id="SVGID_1_" gradientUnits="userSpaceOnUse" x1="-16.8323" y1="-21.6816" x2="178.1677" y2="219.3184">
	<stop  offset="0" style="stop-color:#FFF2A6"/>
	<stop  offset="2.112336e-02" style="stop-color:#EDD682"/>
	<stop  offset="4.863281e-02" style="stop-color:#D9B75B"/>
	<stop  offset="7.576038e-02" style="stop-color:#C99F3B"/>
	<stop  offset="0.102" style="stop-color:#BE8E25"/>
	<stop  offset="0.1271" style="stop-color:#B78418"/>
	<stop  offset="0.1495" style="stop-color:#B58013"/>
	<stop  offset="0.2295" style="stop-color:#C5972C"/>
	<stop  offset="0.3197" style="stop-color:#D3AA42"/>
	<stop  offset="0.4075" style="stop-color:#DBB54F"/>
	<stop  offset="0.4892" style="stop-color:#DEB953"/>
	<stop  offset="0.5803" style="stop-color:#DBB54F"/>
	<stop  offset="0.6752" style="stop-color:#D3AA42"/>
	<stop  offset="0.7715" style="stop-color:#C6982E"/>
	<stop  offset="0.8616" style="stop-color:#B58013"/>
	<stop  offset="0.8837" style="stop-color:#B78317"/>
	<stop  offset="0.9066" style="stop-color:#BD8D24"/>
	<stop  offset="0.93" style="stop-color:#C89D38"/>
	<stop  offset="0.9536" style="stop-color:#D6B456"/>
	<stop  offset="0.9771" style="stop-color:#E9D07B"/>
	<stop  offset="1" style="stop-color:#FFF2A6"/>
</linearGradient>
<path class="st0" d="M89.4,93.3c1.1,2.6,1.8,5.2,1.1,8c-0.4,1.8-1.6,3-3.3,3.6c-6.7,2.5-13.4,5-20.2,7.6
	c-11.2,4.2-22.5,8.5-33.7,12.7c-0.2,0.1-0.4,0.2-0.6,0.3c-0.6,0-1.2,0-1.8,0c0.1-0.6,0.1-1.2,0.1-1.8c0.7-2.7,1.3-5.3,2-8
	c0.3-1.1,0.5-2.1,0.8-3.2s0.9-1.5,1.8-1.3c0.8,0.2,1.2,0.9,1,2c-0.6,2.7-1.3,5.4-2,8.1c0,0.1,0,0.2-0.1,0.5c4-1.5,7.9-3,11.8-4.5
	c-1-1.2-2.1-2.3-3-3.5c-2.9-3.8-4.2-8.1-4.5-12.8c-0.1-2.1-0.4-4.3-0.5-6.4c-0.1-1.2,0.4-1.9,1.4-1.9c0.9,0,1.4,0.6,1.5,1.7
	c0.3,3.4,0.5,6.8,1,10.1c0.8,4.7,3.4,8.5,7.1,11.5c0.1,0.1,0.4,0.2,0.6,0.1c5.4-2,10.8-4.1,16.1-6.1c0,0,0,0,0-0.1
	c-0.6-0.3-1.2-0.6-1.7-0.9c-12.5-7-20-17.4-22.7-31.3c-0.1-0.5-0.1-1.1,0.2-1.5c0.3-0.3,0.9-0.6,1.3-0.6c0.7,0,1.1,0.6,1.2,1.3
	c0.3,1.5,0.6,3.1,1,4.6c3.8,12.6,11.8,21.4,23.9,26.5c0.3,0.1,0.7,0.3,1,0.1c3.2-1.2,6.4-2.4,9.6-3.6c-1.6-0.8-3.3-1.5-4.8-2.3
	C66.7,97.7,59.9,91.4,54,84c-3-3.8-5.7-7.8-7.5-12.4c-0.9-2.3-1.5-4.6-1.1-7c0.6-3.3,3.9-5.5,7.2-4.6c0.8,0.2,1.2,0.8,1.1,1.6
	c-0.1,0.8-0.7,1.2-1.6,1.2c-0.3,0-0.6-0.1-0.9-0.1c-1.9,0.1-3,1.2-3.1,3.1c-0.1,1.8,0.4,3.4,1.1,5c1.8,4.5,4.5,8.5,7.6,12.2
	c5.8,7,12.4,13,20.5,17.2c2.1,1.1,4.3,2,6.7,2.2c0.6,0,1.2,0,1.8-0.1c1.2-0.2,1.8-1.1,2-2.3c0.2-1.7-0.2-3.2-0.7-4.8
	c-0.1-0.4-0.3-0.7-0.3-1.1c-0.1-0.7,0.3-1.3,1-1.5S89.2,92.6,89.4,93.3z M115.6,124.7c-0.2,0.4-0.6,0.6-0.9,0.9c-0.2,0-0.5,0-0.8,0
	c-1.1-0.7-1.3-1.2-0.7-2.5c1-2,1-4.1,0-6.1c-0.1-0.2-0.3-0.5-0.4-0.7c-0.3,1-0.5,2-0.8,2.8c-0.9,2.1-2.5,3.3-4.8,3.5
	c-2.4,0.2-4.3-0.8-5.4-3c-1.1-2-1-4.1,0.3-6c1.2-1.7,2.8-2.7,4.7-3.3c0.2-0.1,0.4-0.1,0.6-0.2c-1.9-2.1-4.1-3.7-6.7-4.8
	c-1.3-0.5-2.6-0.8-3.9-1.2c-1-0.3-1.6-0.9-1.4-1.7c0.2-0.9,0.9-1.3,2-1.1c5.9,1.2,10.6,4.3,14,9.3c0.3,0.5,0.8,1,1.3,1.3
	C116.6,114.8,117.9,120.4,115.6,124.7z M110.1,115.7L110.1,115.7c-0.1-0.3-0.1-0.7-0.2-1c-0.3-1.6-1.1-2-2.6-1.5
	c-1.1,0.4-2.1,1.1-2.8,2.1c-0.9,1.4-0.5,3.2,0.9,4.1c1.4,0.8,3.3,0.3,4-1.2C109.7,117.4,109.9,116.5,110.1,115.7z M31.1,46.5
	C31,46.4,31,46.1,31,45.8c0.4-0.7,1-1,1.8-1.1c1-0.1,2.1-0.3,3.1-0.5c0.3-0.1,0.7-0.3,0.9-0.6c0.5-1,1-2,1.5-3c0.3-0.6,0.7-1,1.4-1
	s1.1,0.4,1.4,1c0.5,1,0.9,2,1.5,3c0.2,0.3,0.5,0.5,0.9,0.6c1.1,0.2,2.3,0.4,3.4,0.5c0.6,0.1,1.1,0.4,1.3,1s0,1.1-0.5,1.6
	c-0.8,0.8-1.7,1.6-2.5,2.5c-0.2,0.2-0.3,0.6-0.3,0.9c0.1,1.1,0.4,2.1,0.5,3.2c0.1,0.7,0.1,1.3-0.5,1.7c-0.6,0.5-1.2,0.3-1.9,0
	c-0.9-0.5-1.9-1-2.8-1.5c-0.3-0.1-0.8-0.2-1.1,0c-1,0.5-2,1.1-3.1,1.5c-0.5,0.2-1.2,0.2-1.6,0c-0.6-0.2-0.7-0.9-0.6-1.5
	c0.2-1.1,0.3-2.2,0.6-3.2c0.1-0.6,0-1-0.4-1.4C33,48.5,32.1,47.5,31.1,46.5z M35.6,47.3c1.8,1.2,2.2,2.7,1.6,4.8
	c1.7-1.6,3.3-1.3,4.9-0.1c-0.8-2-0.2-3.5,1.5-4.7c-2.2,0.1-3.4-0.9-4-3C39.1,46.4,37.8,47.3,35.6,47.3z M108.2,67.7
	c-0.4-0.8-1.2-1-2-0.7c-0.2,0.1-0.3,0.1-0.5,0.2c-8.2,3.9-16.4,7.8-24.6,11.7c-1.6,0.8-3.2,1.5-4.8,2.3c-0.7,0.4-1,1-0.8,1.7
	s0.6,1,1.5,1.1c0.2-0.1,0.6-0.2,0.9-0.3c8.3-3.9,16.5-7.8,24.7-11.7c1.6-0.8,3.3-1.6,4.9-2.4C108.3,69.2,108.5,68.4,108.2,67.7z
	 M59.5,81c0.9,0.4,1.6,0,2.1-1.1c0.6-1.6,1.3-3.1,1.9-4.6c2.2-5.3,3.3-10.8,3.3-17.1c0-2.6-0.3-5.7-0.9-8.8
	c-0.2-0.8-0.9-1.3-1.7-1.1S63,49.1,63.1,50c0,0.2,0.1,0.5,0.1,0.7c1.3,6.6,1.1,13-0.9,19.4c-1,2.9-2.3,5.8-3.4,8.7
	C58.5,79.8,58.7,80.7,59.5,81z M102.7,89.7c-5.1-1.9-10.5-2.9-17.4-2.9c-3,0-7.3,0.8-11.7,1.6c-0.8,0.2-1.2,0.9-1.1,1.7
	c0.1,0.7,0.8,1.2,1.6,1.1c1.2-0.2,2.3-0.4,3.5-0.6c6.6-1.3,13.1-1.2,19.5,0.4c1.6,0.4,3.2,1,4.8,1.5c0.7,0.2,1.3,0.2,1.7-0.4
	c0.2-0.4,0.4-1.1,0.2-1.5C103.7,90.2,103.1,89.9,102.7,89.7z M84,63.7c0-2.2,0-4.5,0-6.7c0-1.2,0.5-1.7,1.7-1.7c2.2,0,4.4,0,6.6,0
	c1.2,0,1.7,0.5,1.7,1.7s0,2.3,0,3.4c0,1.1,0,2.2,0,3.3c0,1.2-0.5,1.7-1.7,1.7c-2.2,0-4.5,0-6.7,0C84.5,65.4,84,64.9,84,63.7z
	 M86.9,62.5c1.4,0,2.8,0,4.2,0c0-1.4,0-2.8,0-4.2c-1.4,0-2.8,0-4.2,0C86.9,59.8,86.9,61.1,86.9,62.5z M65.8,82
	c0.6,0.7,1.4,0.7,2.2,0c4.7-4.2,9.3-8.4,14-12.6c0.3-0.2,0.5-0.7,0.8-1.2c-0.4-0.4-0.7-0.9-1.1-1.3c-0.6-0.4-1.2-0.1-1.7,0.4
	c-4.6,4.2-9.3,8.3-13.9,12.5C65.3,80.5,65.2,81.4,65.8,82z M105.5,95.5c0-2.4,1.9-4.3,4.3-4.4c2.4,0,4.3,2,4.3,4.3
	c0,2.4-1.9,4.3-4.3,4.3C107.4,99.7,105.5,97.9,105.5,95.5z M108.4,95.4c0,0.8,0.6,1.4,1.3,1.4c0.8,0,1.5-0.6,1.5-1.4
	c0.1-0.7-0.6-1.4-1.4-1.4S108.4,94.6,108.4,95.4z M71.1,55.3c0-2.4,1.9-4.3,4.3-4.3c2.4,0.1,4.3,2,4.3,4.3c0,2.4-1.9,4.3-4.3,4.3
	S71.1,57.7,71.1,55.3z M75.5,56.8c0.8,0,1.4-0.7,1.4-1.5c0-0.7-0.7-1.4-1.4-1.4c-0.8,0-1.4,0.7-1.4,1.4C74,56.2,74.6,56.8,75.5,56.8
	z M62.5,45.3c1.6,0,2.9-1.3,2.8-2.9c0-1.5-1.3-2.8-2.8-2.8c-1.6-0.1-2.9,1.2-2.9,2.8C59.6,44,60.9,45.3,62.5,45.3z M107.1,60.9
	c-0.1,0.3-0.1,0.7-0.1,1c0,1.4,0.4,2.1,1.4,2.1c0.9,0,1.4-0.7,1.4-2.1c0-0.3,0-0.6,0.1-0.8c-0.1-0.8-0.5-1.2-1.3-1.3
	C107.9,59.7,107.3,60.2,107.1,60.9z M105.2,46.7c0.3,0.1,0.7,0.1,1,0.1c1.4,0,2.1-0.5,2.1-1.5s-0.7-1.4-2.1-1.4c-0.3,0-0.5,0-0.9,0
	c-0.8,0.1-1.3,0.7-1.3,1.4S104.4,46.5,105.2,46.7z M112.1,65.6c1.2,0,2.8-1.5,2.7-2.5c-0.1-0.4-0.4-0.9-0.8-1.1s-1-0.1-1.4,0.1
	c-0.5,0.2-0.9,0.7-1.2,1.2c-0.3,0.5-0.4,1.1-0.2,1.5C111.3,65.2,111.9,65.4,112.1,65.6z M112.7,68.3c0,0.9,0.7,1.4,2.1,1.4
	c0.2,0,0.4,0,0.7,0.1c0.9-0.1,1.5-0.6,1.5-1.4s-0.6-1.4-1.4-1.5c-0.3,0-0.5,0-0.8,0C113.4,66.9,112.7,67.3,112.7,68.3z M106.9,73.8
	c0,0.3,0,0.6,0,0.9c0,1.4,0.5,2.1,1.5,2.1s1.4-0.7,1.4-2.1c0-0.2,0-0.5-0.1-0.8c-0.1-0.8-0.6-1.4-1.4-1.4
	C107.6,72.5,107,73.1,106.9,73.8z M102.6,44c0.8,0,1.3-0.6,1.4-1.4c0-0.3,0-0.5,0-0.8c0.1-0.2,0.1-0.4,0-0.4c0-1-0.6-1.6-1.4-1.6
	s-1.4,0.6-1.4,1.5c0,0.5,0,0.9,0,1.4C101.2,43.5,101.8,44,102.6,44z M102.6,46.9c-0.8,0-1.4,0.6-1.4,1.5c0,0.4,0,0.8,0,1.2
	c0,0.9,0.6,1.5,1.4,1.5c0.9,0,1.5-0.6,1.5-1.6c0-0.2,0-0.3,0-0.5s0-0.5-0.1-0.6C104,47.5,103.4,46.9,102.6,46.9z M98.3,46.7
	c0.5,0,0.9,0,1.3,0c1,0,1.6-0.6,1.6-1.4s-0.6-1.4-1.6-1.4c-0.2,0-0.3,0-0.5,0c-0.3,0-0.5,0-0.7-0.1c-0.9,0.1-1.5,0.6-1.5,1.4
	S97.4,46.6,98.3,46.7z M102.1,63.8c0.4,0.6,1,1.2,1.6,1.6c0.8,0.6,2-0.2,2-1.2c0-0.9-1.5-2.4-2.4-2.4
	C102.3,61.8,101.5,63,102.1,63.8z M114.8,73.6c0-1.2-1.5-2.8-2.3-2.7c-0.4,0-1,0.3-1.2,0.7c-0.2,0.4-0.2,1,0,1.4
	c0.3,0.6,0.8,1.1,1.4,1.5c0.4,0.2,1,0.2,1.4,0C114.4,74.3,114.7,73.8,114.8,73.6z"/>
</svg>
