<?xml version="1.0" encoding="utf-8"?>
<!-- Generator: Adobe Illustrator 26.0.1, SVG Export Plug-In . SVG Version: 6.00 Build 0)  -->
<svg version="1.1" id="Capa_1" xmlns="http://www.w3.org/2000/svg" xmlns:xlink="http://www.w3.org/1999/xlink" x="0px" y="0px"
	 viewBox="0 0 150 150" style="enable-background:new 0 0 150 150;" xml:space="preserve">
<style type="text/css">
	.st0{fill:url(#SVGID_1_);}
</style>
<linearGradient id="SVGID_1_" gradientUnits="userSpaceOnUse" x1="34.7529" y1="44.2471" x2="105.7529" y2="115.2471">
	<stop  offset="0" style="stop-color:#FFF2A6"/>
	<stop  offset="2.112336e-02" style="stop-color:#EDD682"/>
	<stop  offset="4.863281e-02" style="stop-color:#D9B75B"/>
	<stop  offset="7.576038e-02" style="stop-color:#C99F3B"/>
	<stop  offset="0.102" style="stop-color:#BE8E25"/>
	<stop  offset="0.1271" style="stop-color:#B78418"/>
	<stop  offset="0.1495" style="stop-color:#B58013"/>
	<stop  offset="0.2295" style="stop-color:#C5972C"/>
	<stop  offset="0.3197" style="stop-color:#D3AA42"/>
	<stop  offset="0.4075" style="stop-color:#DBB54F"/>
	<stop  offset="0.4892" style="stop-color:#DEB953"/>
	<stop  offset="0.5803" style="stop-color:#DBB54F"/>
	<stop  offset="0.6752" style="stop-color:#D3AA42"/>
	<stop  offset="0.7715" style="stop-color:#C6982E"/>
	<stop  offset="0.8616" style="stop-color:#B58013"/>
	<stop  offset="0.8837" style="stop-color:#B78317"/>
	<stop  offset="0.9066" style="stop-color:#BD8D24"/>
	<stop  offset="0.93" style="stop-color:#C89D38"/>
	<stop  offset="0.9536" style="stop-color:#D6B456"/>
	<stop  offset="0.9771" style="stop-color:#E9D07B"/>
	<stop  offset="1" style="stop-color:#FFF2A6"/>
</linearGradient>
<path class="st0" d="M96.8,46.8L96.8,46.8c-0.4-0.4-1-0.6-1.6-0.5L59,51c-1,0.1-1.8,1-1.8,2v39.4c-2.3-1.9-5.3-3-8.4-3
	c-6.9,0-12.6,5.1-12.6,11.4s5.6,11.4,12.6,11.4s12.6-5.1,12.6-11.4c0-0.2,0-0.5,0-0.7c0-0.1,0-0.2,0-0.3v-33l32.1-4.1v18.1
	c-2.3-1.9-5.3-3-8.4-3c-6.9,0-12.6,5.1-12.6,11.4s5.6,11.4,12.6,11.4c6.8,0,12.4-5,12.6-11.1V48.3C97.5,47.7,97.3,47.2,96.8,46.8z
	 M93.4,89.2c0,4-3.8,7.3-8.4,7.3c-4.7,0-8.4-3.3-8.4-7.3s3.8-7.3,8.4-7.3C89.6,81.9,93.4,85.2,93.4,89.2z M93.4,50.7v7.8l-32.1,4.1
	v-7.8L93.4,50.7z M57.2,100.9c0,4-3.8,7.3-8.4,7.3c-4.7,0-8.4-3.3-8.4-7.3s3.8-7.3,8.4-7.3S57.2,96.9,57.2,100.9z"/>
</svg>
